<svg width="48" height="48" viewBox="0 0 48 48" fill="none" xmlns="http://www.w3.org/2000/svg">
<rect width="48" height="48" rx="24" fill="#8257E5"/>
<path d="M24.375 32.25H16.4718C16.3767 32.2513 16.2823 32.2334 16.1941 32.1976C16.106 32.1618 16.0259 32.1087 15.9586 32.0414C15.8913 31.9741 15.8382 31.894 15.8024 31.8059C15.7665 31.7177 15.7487 31.6233 15.75 31.5281V23.625C15.75 21.3375 16.6587 19.1437 18.2762 17.5262C19.8937 15.9087 22.0875 15 24.375 15C25.5076 15 26.6292 15.2231 27.6756 15.6565C28.722 16.09 29.6729 16.7253 30.4738 17.5262C31.2747 18.3271 31.91 19.2779 32.3434 20.3244C32.7769 21.3708 33 22.4923 33 23.625C33 24.7577 32.7769 25.8792 32.3434 26.9256C31.91 27.9721 31.2747 28.9229 30.4738 29.7238C29.6729 30.5247 28.722 31.16 27.6756 31.5935C26.6292 32.0269 25.5076 32.25 24.375 32.25Z" stroke="white" stroke-width="1.5" stroke-linecap="round" stroke-linejoin="round"/>
<path d="M25.4531 24C25.4531 24.5954 24.9704 25.0781 24.375 25.0781C23.7796 25.0781 23.2969 24.5954 23.2969 24C23.2969 23.4046 23.7796 22.9219 24.375 22.9219C24.9704 22.9219 25.4531 23.4046 25.4531 24Z" fill="white" stroke="white" stroke-width="0.09375"/>
<path d="M20.9531 24C20.9531 24.5954 20.4704 25.0781 19.875 25.0781C19.2796 25.0781 18.7969 24.5954 18.7969 24C18.7969 23.4046 19.2796 22.9219 19.875 22.9219C20.4704 22.9219 20.9531 23.4046 20.9531 24Z" fill="white" stroke="white" stroke-width="0.09375"/>
<path d="M29.9531 24C29.9531 24.5954 29.4704 25.0781 28.875 25.0781C28.2796 25.0781 27.7969 24.5954 27.7969 24C27.7969 23.4046 28.2796 22.9219 28.875 22.9219C29.4704 22.9219 29.9531 23.4046 29.9531 24Z" fill="white" stroke="white" stroke-width="0.09375"/>
</svg>
